Coordinates
version=1
nRows=11
nColumns=40
inDegrees=yes

Units are S.I. units (second, meters, Newtons, ...)
Angles are in degrees.

endheader
time	pelvis_tilt	pelvis_list	pelvis_rotation	pelvis_tx	pelvis_ty	pelvis_tz	hip_flexion_r	hip_adduction_r	hip_rotation_r	knee_angle_r	knee_angle_r_beta	ankle_angle_r	subtalar_angle_r	mtp_angle_r	hip_flexion_l	hip_adduction_l	hip_rotation_l	knee_angle_l	knee_angle_l_beta	ankle_angle_l	subtalar_angle_l	mtp_angle_l	lumbar_extension	lumbar_bending	lumbar_rotation	arm_flex_r	arm_add_r	arm_rot_r	elbow_flex_r	pro_sup_r	wrist_flex_r	wrist_dev_r	arm_flex_l	arm_add_l	arm_rot_l	elbow_flex_l	pro_sup_l	wrist_flex_l	wrist_dev_l
      2.26000000	     -1.08233552	     10.78614638	      0.70324552	      0.41134580	      0.95207233	     -1.08567728	      8.32539411	    -24.00245606	    -13.28369501	    -58.82538536	     -1.02669666	     -7.53683684	    -12.17806375	     -5.06730717	     12.27006220	    -11.22546517	     11.61220075	    -14.73699533	     -0.25720909	      0.15555811	      8.14158462	      1.91241060	     -2.38341329	    -12.50724959	      3.37336670	      1.21702672	     -9.78542571	     -9.52851961	     22.17570141	     89.95437384	      0.00000000	      0.00000000	     -2.97161854	     11.28769142	      3.37050559	     13.30437806	     89.95437384	      0.00000000	      0.00000000
      2.27000000	     -1.41950574	     10.33038755	      0.37454193	      0.41893495	      0.95269796	     -1.08666069	     10.77337772	    -23.24068148	    -12.33685044	    -60.21737525	     -1.05099146	     -4.06997868	    -14.07640047	     12.95315387	     12.05469518	    -10.68611510	     12.39608995	    -14.63224977	     -0.25538094	      0.30571648	      7.48370486	      0.85196815	     -2.18645405	    -11.99598172	      3.18570618	      1.10535047	     -9.76821898	     -8.89128841	     21.82250689	     89.95437384	      0.00000000	      0.00000000	     -2.01373590	     11.29361341	      3.57182941	     13.80320550	     89.95437384	      0.00000000	      0.00000000
      2.28000000	     -1.33360898	     10.05093825	      0.20955250	      0.42713882	      0.95406864	     -1.08817466	     12.22434544	    -22.79763961	    -11.92314435	    -60.78786239	     -1.06094834	     -3.04135128	    -14.98531394	     12.75988758	     11.05606850	    -10.54377808	     12.47763187	    -14.00248868	     -0.24438953	      0.61414286	      7.23197799	      0.77982586	     -2.44907496	    -11.64337162	      2.80503808	      0.99298602	     -9.69704274	     -8.62695774	     21.43538580	     89.95437384	      0.00000000	      0.00000000	     -0.99764162	     11.34089224	      3.54346599	     14.27198066	     89.95437384	      0.00000000	      0.00000000
      2.29000000	     -1.25562086	      9.70779871	     -0.07774837	      0.43532800	      0.95542281	     -1.08928533	     13.67505231	    -22.10747329	    -11.29720168	    -61.05859592	     -1.06567354	     -2.17061386	    -16.02793508	     12.96403449	     10.05014259	    -10.27741126	     12.89353219	    -13.30778131	     -0.23226460	      0.76432145	      6.99457330	      0.71391994	     -2.68664964	    -11.22565387	      2.52900968	      0.82725336	     -9.71596411	     -7.96235529	     21.20176546	     89.95437384	      0.00000000	      0.00000000	     -0.06298351	     11.44315620	      3.42641490	     14.93747256	     89.95437384	      0.00000000	      0.00000000
      2.30000000	     -1.31105033	      9.39548408	      0.03061129	      0.44332986	      0.95650784	     -1.09115736	     15.02894827	    -21.76008307	    -11.46668776	    -61.06455781	     -1.06577759	     -1.42726425	    -16.36574280	     12.82063971	      9.28214943	    -10.10285454	     13.19158546	    -12.82923040	     -0.22391231	      1.08141719	      6.82055568	      0.64991010	     -2.84309346	    -10.80758083	      1.92781113	      0.65985728	     -9.68371991	     -7.71566990	     20.99618023	     89.95437384	      0.00000000	      0.00000000	      0.99336083	     11.50547561	      3.33621124	     15.36737146	     89.95437384	      0.00000000	      0.00000000
      2.31000000	     -1.23496827	      8.94659930	     -0.07207268	      0.45147525	      0.95782067	     -1.09237845	     16.16599418	    -20.87637490	    -11.12512430	    -60.69915914	     -1.05940018	     -0.09618907	    -17.02654367	     12.84418007	      8.22899189	     -9.78289839	     13.02915003	    -12.08052331	     -0.21084491	      1.27477587	      6.29529068	      0.56591507	     -3.08661119	    -10.26393789	      1.55509524	      0.48443379	     -9.71148544	     -7.14692115	     20.74061025	     89.95437384	      0.00000000	      0.00000000	      1.99452830	     11.63468023	      3.20821311	     16.00849581	     89.95437384	      0.00000000	      0.00000000
      2.32000000	     -1.30303338	      8.65488446	      0.09296856	      0.45956220	      0.95874384	     -1.09412799	     17.36913666	    -20.48833191	    -11.38487684	    -60.16930249	     -1.05015244	      0.44192523	    -17.15388994	     12.78668109	      7.52414986	     -9.61654757	     13.32103741	    -11.68136512	     -0.20387828	      1.52778270	      6.11466771	      0.50213243	     -3.19937435	     -9.86965042	      0.94913258	      0.24815746	     -9.71269721	     -6.81281007	     20.66215177	     89.95437384	      0.00000000	      0.00000000	      3.00774088	     11.77346987	      3.10503831	     16.58719984	     89.95437384	      0.00000000	      0.00000000
      2.33000000	     -0.53881567	      7.85313320	      0.32990629	      0.46819566	      0.96108220	     -1.09545544	     17.15131834	    -19.37416010	    -11.98089109	    -58.90642300	     -1.02811103	      1.37960108	    -17.45942742	     14.53306175	      5.72827432	     -8.83198844	     13.38557880	    -11.02768791	     -0.19246946	      1.53853764	      4.75416268	      0.03861579	     -4.24631817	     -8.90698913	      0.09585004	     -0.05283164	    -10.00557903	     -5.14842488	     20.97125610	     89.95437384	      0.00000000	      0.00000000	      3.93291692	     11.92213185	      3.07913832	     17.46737962	     89.95437384	      0.00000000	      0.00000000
      2.34000000	     -0.76889005	      7.68311173	      0.56882637	      0.47609995	      0.96145638	     -1.09723428	     18.46272242	    -19.13323642	    -12.25438767	    -57.98788768	     -1.01207957	      1.77202243	    -17.37554498	     14.41061821	      5.32890093	     -8.77663554	     13.58716429	    -10.82588328	     -0.18894731	      1.78425873	      4.63223633	     -0.03552319	     -4.17477474	     -8.63819654	     -0.51510547	     -0.35516467	     -9.97456044	     -5.04974577	     20.94731729	     89.95437384	      0.00000000	      0.00000000	      4.90752319	     12.12068935	      3.00204900	     18.13902693	     89.95437384	      0.00000000	      0.00000000
      2.35000000	     -0.81843730	      7.02764527	      1.07261940	      0.48398765	      0.96216346	     -1.09857979	     19.22798872	    -18.22052585	    -12.84525184	    -56.64642853	     -0.98866669	      2.34092070	    -17.50858105	     14.68908483	      4.63438722	     -8.19259552	     12.84544169	    -10.45901298	     -0.18254421	      1.96061633	      4.18281095	     -0.24053560	     -4.34357256	     -7.87098216	     -1.36604306	     -0.58935427	     -9.97423502	     -4.78535143	     20.96611428	     89.95437384	      0.00000000	      0.00000000	      5.76138031	     12.42026613	      2.68170634	     19.14427179	     89.95437384	      0.00000000	      0.00000000
      2.36000000	     -1.02597779	      6.94667324	      1.36790404	      0.49191669	      0.96227660	     -1.10018721	     20.38906244	    -18.08507767	    -13.19624831	    -55.32943694	     -0.96568085	      2.59112918	    -17.25528562	     14.58104305	      4.27015706	     -8.21216989	     13.03727459	    -10.37225301	     -0.18102997	      2.23541254	      4.07882505	     -0.33406391	     -4.27620604	     -7.70507330	     -1.97025837	     -0.93840561	     -9.96419239	     -4.69410303	     21.00413868	     89.95437384	      0.00000000	      0.00000000	      6.71272037	     12.67582456	      2.60392339	     19.89437267	     89.95437384	      0.00000000	      0.00000000
